<?xml version="1.0" encoding="UTF-8" standalone="no"?><!DOCTYPE svg PUBLIC "-//W3C//DTD SVG 1.1//EN" "http://www.w3.org/Graphics/SVG/1.1/DTD/svg11.dtd"><svg width="100%" height="100%" viewBox="0 0 954 954" version="1.1" xmlns="http://www.w3.org/2000/svg" xmlns:xlink="http://www.w3.org/1999/xlink" xml:space="preserve" xmlns:serif="http://www.serif.com/" style="fill-rule:evenodd;clip-rule:evenodd;stroke-linejoin:round;stroke-miterlimit:2;"><g><g><g><circle cx="476.767" cy="476.767" r="476.767" style="fill:#f2eee6;"/></g><g><path d="M378.189,827.638c-18.097,2.527 -42.385,4.461 -74.319,5.358c16.535,6.625 29.931,10.72 37.807,12.452c7.819,1.72 55.92,10.842 65.428,11.87c8.413,0.91 15.86,1.594 22.436,2.102c39.156,-1.202 89.204,-3.43 105.343,-8.163c36.289,-10.642 66.09,-32.659 84.136,-49.103c-2.786,-5.893 -6.675,-13.57 -11.924,-23.626c-17.945,-34.378 -15.239,-36.053 -20.78,-45.707c-2.932,-5.108 -4.747,-4.973 -3.185,-8.209c2.124,-4.4 7.861,9.909 20.255,14.558c11.733,4.401 38.488,13.714 39.239,31.469l0.005,0.017c0.824,2.614 -0.102,13.292 -1.376,14.393c-0.204,0.176 -0.226,0.52 -0.361,0.795c-1.977,4.02 -7.147,10.23 -14.364,17.346c6.872,12.267 10.545,16.69 14.129,38.48c0.667,16.509 -17.472,40.604 -34.654,33.619c-14.726,-14.452 -2.694,-42.305 12.879,-51.355c5.515,-2.134 9.082,-1.389 2.74,-16.061c-20.739,19.202 -53.463,42.606 -78.529,48.193c-37.987,8.467 -83.91,13.703 -125.432,10.711c-2.442,0.114 -4.087,0.148 -4.594,0.09c-37.444,-4.334 -71.384,-11.841 -102.059,-21.976c8.742,9.101 16.509,18.562 16.904,19.456c0.405,0.916 1.73,8.205 0.459,6.304c-3.559,-5.319 -24.861,-27.115 -34.499,-31.172c-1.129,-0.476 -2.28,-1.142 -3.345,-1.927c-78.721,-30.484 -134.089,-79.18 -170.746,-135.442c-64.879,-99.579 -74.265,-223.053 -51.624,-305.509c82.679,-301.108 368.754,-335.833 368.6,-314.511c-0.066,9.114 -4.199,4.677 -20.13,7.023c-88.705,13.061 -168.103,52.836 -225.156,113.483c-101.628,108.028 -152.279,253.296 -103.159,409.705c9.521,30.319 24.125,57.427 41.603,84.756c6.78,10.602 13.282,17.24 21.302,27.523c38.75,49.686 94.885,82.959 137.526,102.003c8.117,1.344 19.576,1.409 26.87,0.81c17.108,-1.405 34.725,-2.856 50.17,-4.611c7.19,-5.178 15.753,-14.237 15.731,-22.137c-0.014,-4.984 9.823,-7.366 12.722,-3.329c3.237,4.508 -11.931,17.123 -23.28,24.857c15.211,-1.862 27.847,-4.067 35.062,-6.885c1.247,-0.487 3.903,-1.265 3.495,-2.223c-1.32,-3.096 4.453,-11.684 9.495,-10.913c12.12,1.852 6.307,7.883 4.246,10.913c-2.815,4.14 -11.785,8.439 -29.777,12.022c5.84,1.772 10.257,4.859 9.909,9.769c-0.569,8.033 -8.357,13.88 -10.163,7.232c-2.326,-8.563 -8.918,-12.948 -15.033,-14.453Zm258.329,-55.917c-4.463,-11.428 -17.123,-23.534 -36.734,-21.484c-0.849,0.089 13.138,25.134 18.869,37.523c1.808,3.908 3.456,7.207 4.968,10.084c4.67,-4.499 8.282,-8.384 10.702,-11.222c0.415,-0.486 0.78,-1.181 1.098,-1.981c1.201,-3.026 1.737,-6.944 1.713,-8.162c-0.032,-1.667 -0.301,-3.278 -0.616,-4.757Z" style="fill:#d6b88a;"/></g><g><g><path d="M143.134,558.154c2.215,0.332 4.237,0.526 6.065,0.582c1.828,0.055 3.129,-0.083 3.905,-0.415c0.665,-0.222 1.052,-2.659 1.163,-7.311c0.332,-7.533 1.911,-15.204 4.736,-23.013c2.825,-7.81 6.009,-15.536 9.554,-23.179c2.326,-4.985 4.431,-9.914 6.314,-14.788c7.311,-17.945 13.237,-31.293 17.779,-40.044l3.323,-6.314l3.988,-0.665c6.425,-1.108 14.567,-1.994 24.425,-2.659c2.326,-0.111 4.154,-0.194 5.483,-0.249c1.329,-0.055 2.492,-0.028 3.489,0.083c0.997,0.111 2.16,0.332 3.489,0.665c1.994,0.332 3.545,0.609 4.652,0.831c1.108,0.222 1.939,0.332 2.492,0.332c0.554,0 0.914,-0.055 1.08,-0.166c0.166,-0.111 0.249,-0.332 0.249,-0.665c-0.111,-0.886 -0.914,-2.049 -2.409,-3.489c-1.495,-1.44 -3.129,-2.492 -4.902,-3.157c-0.886,-0.332 -2.188,-0.72 -3.905,-1.163c-1.717,-0.443 -3.462,-0.886 -5.234,-1.329c-1.883,-0.443 -3.462,-0.748 -4.736,-0.914c-1.274,-0.166 -2.742,-0.277 -4.403,-0.332c-1.662,-0.055 -4.043,-0.083 -7.145,-0.083c-6.757,0 -10.025,-0.166 -9.803,-0.498c0.222,-0.222 0.942,-1.579 2.16,-4.071c1.219,-2.492 2.659,-5.566 4.32,-9.222c6.979,-14.733 11.963,-23.595 14.954,-26.586c1.551,-1.551 2.299,-2.825 2.243,-3.822c-0.055,-0.997 -0.914,-2.105 -2.575,-3.323c-1.883,-1.44 -4.348,-2.852 -7.394,-4.237c-3.046,-1.385 -5.982,-2.492 -8.806,-3.323c-2.825,-0.831 -4.902,-1.191 -6.231,-1.08c-2.769,0.665 -4.929,1.994 -6.48,3.988c-0.554,0.997 -1.717,3.295 -3.489,6.896c-1.772,3.6 -3.545,7.366 -5.317,11.299c-1.772,3.932 -3.046,6.951 -3.822,9.056c-0.443,0.997 -0.831,1.828 -1.163,2.492c-0.332,0.665 -0.554,0.997 -0.665,0.997c-0.222,0 -0.748,-0.36 -1.579,-1.08c-0.831,-0.72 -1.8,-1.579 -2.908,-2.575c-2.659,-2.437 -5.871,-4.68 -9.637,-6.729c-3.766,-2.049 -7.477,-3.628 -11.133,-4.736c-1.44,-0.332 -3.462,-0.775 -6.065,-1.329c-2.603,-0.554 -5.123,-0.997 -7.56,-1.329c-2.437,-0.443 -4.486,-0.831 -6.148,-1.163c-1.662,-0.332 -2.548,-0.554 -2.659,-0.665c-0.111,-0.332 1.468,-1.08 4.736,-2.243c3.268,-1.163 7.256,-2.492 11.963,-3.988c4.708,-1.495 9.166,-2.797 13.376,-3.905c7.089,-1.883 15.397,-3.822 24.924,-5.816c9.526,-1.994 18.388,-3.711 26.586,-5.151c20.825,-3.434 40.958,-5.871 60.399,-7.311c19.441,-1.44 32.983,-1.495 40.626,-0.166c0.997,0.222 2.049,0.415 3.157,0.582c1.108,0.166 1.994,0.249 2.659,0.249c0.997,0 1.689,-0.055 2.077,-0.166c0.388,-0.111 0.637,-0.443 0.748,-0.997c0.222,-0.997 -0.138,-2.797 -1.08,-5.4c-0.942,-2.603 -2.077,-4.459 -3.406,-5.566c-1.44,-1.219 -4.099,-2.326 -7.976,-3.323c-3.545,-0.997 -7.089,-1.745 -10.634,-2.243c-3.545,-0.498 -8.474,-0.858 -14.788,-1.08c-31.127,-0.997 -66.298,2.659 -105.511,10.967c-42.537,9.748 -67.129,18.998 -73.775,27.749c-1.329,2.326 -0.111,6.314 3.656,11.963c2.548,2.769 5.483,4.736 8.806,5.899c3.323,1.163 9.083,2.132 17.281,2.908c11.963,1.219 20.604,2.742 25.921,4.569c5.317,1.828 8.64,4.459 9.97,7.893c1.219,2.548 1.745,4.902 1.579,7.062c-0.166,2.16 -1.025,4.902 -2.575,8.225l-2.825,5.982l-23.429,5.649c-15.73,3.656 -27.887,6.619 -36.472,8.89c-8.585,2.271 -14.567,4.154 -17.945,5.649c-3.379,1.495 -5.012,2.852 -4.902,4.071c0,0.886 0.775,2.077 2.326,3.572c1.551,1.495 3.462,2.963 5.733,4.403c2.271,1.44 4.459,2.492 6.563,3.157c1.329,0.554 2.382,0.858 3.157,0.914c0.775,0.055 1.772,-0.028 2.991,-0.249c3.766,-0.665 6.093,-2.271 6.979,-4.819c0.222,-0.665 0.498,-1.191 0.831,-1.579c0.332,-0.388 0.969,-0.775 1.911,-1.163c0.942,-0.388 2.409,-0.969 4.403,-1.745c1.883,-0.775 4.099,-1.579 6.646,-2.409c2.548,-0.831 4.819,-1.579 6.813,-2.243c2.991,-0.886 6.563,-1.911 10.717,-3.074c4.154,-1.163 7.865,-2.16 11.133,-2.991c3.268,-0.831 5.068,-1.191 5.4,-1.08c0.111,0.111 -0.194,1.08 -0.914,2.908c-0.72,1.828 -1.689,4.071 -2.908,6.729c-0.554,1.329 -1.219,2.88 -1.994,4.652c-4.874,10.856 -10.496,24.342 -16.865,40.46c-6.369,16.117 -9.665,28.607 -9.886,37.469c0,4.874 0.997,8.308 2.991,10.302c1.994,1.994 5.705,3.434 11.133,4.32Z" style="fill:#6b7867;"/><path d="M236.018,550.344c0.886,0.222 1.939,0.388 3.157,0.498c1.219,0.111 2.326,0.166 3.323,0.166c1.329,0 2.354,-0.083 3.074,-0.249c0.72,-0.166 1.412,-0.526 2.077,-1.08c2.548,-1.883 6.037,-8.086 10.468,-18.61c8.197,-19.496 15.287,-33.509 21.268,-42.038c1.883,-3.102 3.766,-5.982 5.649,-8.64c1.883,-2.659 3.434,-4.819 4.652,-6.48c1.219,-1.662 1.939,-2.492 2.16,-2.492c0.111,0.111 0.083,0.471 -0.083,1.08c-0.166,0.609 -0.415,1.302 -0.748,2.077c-3.988,17.613 -4.874,27.527 -2.659,29.743c0.886,1.219 2.659,2.188 5.317,2.908c2.659,0.72 5.511,1.191 8.557,1.412c3.046,0.222 5.705,0.166 7.976,-0.166c2.271,-0.332 3.517,-0.997 3.739,-1.994c0,-0.222 -0.083,-0.471 -0.249,-0.748c-0.166,-0.277 -0.36,-0.582 -0.582,-0.914c-0.443,-0.554 -0.942,-1.495 -1.495,-2.825c-0.554,-1.329 0.111,-7.006 1.994,-17.031c1.883,-10.025 3.545,-17.198 4.985,-21.518c1.772,-5.76 3.019,-10.136 3.739,-13.127c0.72,-2.991 1.025,-5.179 0.914,-6.563c-0.111,-1.385 -0.609,-2.409 -1.495,-3.074c-1.219,-0.997 -3.157,-2.132 -5.816,-3.406c-2.659,-1.274 -4.874,-2.132 -6.646,-2.575c-1.44,-0.222 -2.935,-0.111 -4.486,0.332c-1.551,0.443 -2.935,1.219 -4.154,2.326c-12.185,7.311 -28.247,34.617 -48.186,81.917c-1.219,2.991 -2.243,5.345 -3.074,7.062c-0.831,1.717 -1.246,2.409 -1.246,2.077c0,-0.775 0.554,-2.908 1.662,-6.397c1.108,-3.489 2.382,-7.366 3.822,-11.631c1.44,-4.265 2.714,-7.837 3.822,-10.717c1.994,-4.985 4.846,-11.437 8.557,-19.358c3.711,-7.92 7.616,-15.868 11.714,-23.844l6.813,-13.127l-1.495,-1.495c-1.662,-1.772 -5.372,-3.6 -11.133,-5.483c-2.548,-0.886 -4.514,-1.357 -5.899,-1.412c-1.385,-0.055 -2.631,0.305 -3.739,1.08c-0.775,0.443 -1.468,0.997 -2.077,1.662c-0.609,0.665 -1.274,1.662 -1.994,2.991c-0.72,1.329 -1.634,3.212 -2.742,5.649c-0.886,1.883 -2.631,5.123 -5.234,9.72c-2.603,4.597 -8.197,18.61 -16.782,42.038c-8.585,23.429 -12.019,37.275 -10.302,41.54c1.717,4.265 6.009,7.837 12.877,10.717Z" style="fill:#6b7867;"/><path d="M382.404,426.057c1.219,0.554 2.825,1.052 4.819,1.495c1.994,0.443 3.711,0.388 5.151,-0.166c0,-0.111 0.498,-0.831 1.495,-2.16c2.548,-3.656 6.591,-9 12.13,-16.034c5.539,-7.034 10.856,-12.545 15.951,-16.533c1.994,-1.219 3.046,-2.215 3.157,-2.991c0.111,-0.775 -0.997,-1.772 -3.323,-2.991c-2.548,-1.44 -6.093,-2.769 -10.634,-3.988c-6.536,-1.994 -11.077,-2.631 -13.625,-1.911c-2.548,0.72 -4.874,3.24 -6.979,7.56c-3.656,6.757 -6.48,14.567 -8.474,23.429c-1.108,4.985 -1.689,8.446 -1.745,10.385c-0.055,1.939 0.637,3.24 2.077,3.905Zm-41.706,122.958c1.772,0.222 3.185,0.305 4.237,0.249c1.052,-0.055 2.465,-0.415 4.237,-1.08c7.422,-2.769 17.502,-10.69 30.241,-23.761c10.523,-10.856 20.161,-21.352 28.912,-31.487c8.751,-10.136 13.57,-16.754 14.456,-19.856c0.111,-0.775 0.028,-1.357 -0.249,-1.745c-0.277,-0.388 -1.025,-0.803 -2.243,-1.246c-0.665,-0.222 -1.44,-0.443 -2.326,-0.665c-0.886,-0.222 -1.551,-0.332 -1.994,-0.332c-0.665,0 -1.163,0.111 -1.495,0.332c-0.332,0.222 -0.609,0.665 -0.831,1.329c-0.332,0.775 -2.492,3.379 -6.48,7.81c-3.988,4.431 -8.668,9.526 -14.04,15.287c-5.372,5.76 -10.302,11.022 -14.788,15.785c-4.486,4.763 -7.505,7.92 -9.056,9.471c-2.991,2.991 -6.259,5.982 -9.803,8.973c-3.545,2.991 -6.702,5.456 -9.471,7.394c-2.769,1.939 -4.431,2.797 -4.985,2.575c-0.222,-0.222 -0.111,-1.412 0.332,-3.572c0.443,-2.16 1.08,-4.652 1.911,-7.477c0.831,-2.825 1.689,-5.4 2.575,-7.726c4.099,-9.97 9.083,-20.244 14.954,-30.823c5.871,-10.579 11.687,-19.635 17.447,-27.167c1.329,-1.662 2.437,-3.185 3.323,-4.569c0.886,-1.385 1.385,-2.243 1.495,-2.575c-0.332,-1.994 -5.04,-4.32 -14.124,-6.979c-5.649,-1.662 -9.97,-2.492 -12.96,-2.492c-2.991,0 -5.317,0.775 -6.979,2.326c-4.209,4.099 -9.166,11.825 -14.871,23.179c-5.705,11.354 -10.385,22.681 -14.04,33.98c-1.44,4.985 -2.465,10.468 -3.074,16.45c-0.609,5.982 -0.582,10.579 0.083,13.791c1.219,5.539 3.379,9.028 6.48,10.468c1.551,0.775 3.628,1.579 6.231,2.409c2.603,0.831 4.902,1.412 6.896,1.745Z" style="fill:#6b7867;"/><path d="M434.08,550.843c11.188,2.215 22.321,0.609 33.398,-4.819c13.182,-7.422 26.115,-18.582 38.798,-33.481c12.684,-14.899 19.745,-26.835 21.185,-35.807c0.332,-2.437 -1.163,-3.988 -4.486,-4.652c-1.772,-0.332 -2.991,-0.388 -3.656,-0.166c-0.665,0.222 -1.052,0.831 -1.163,1.828c-0.554,3.212 -3.905,8.806 -10.053,16.782c-6.148,7.976 -13.68,16.311 -22.598,25.007c-8.917,8.696 -17.779,15.702 -26.586,21.019c-8.806,5.317 -16.201,6.868 -22.182,4.652c-1.772,-0.886 -3.462,-3.074 -5.068,-6.563c-1.606,-3.489 -2.575,-7.062 -2.908,-10.717l-0.166,-4.819c6.093,0.775 12.6,-0.443 19.524,-3.656c6.923,-3.212 13.348,-8.142 19.275,-14.788c5.926,-6.646 10.717,-14.124 14.373,-22.432c7.089,-17.281 7.311,-29.41 0.665,-36.389c-1.883,-1.662 -4.819,-3.295 -8.806,-4.902c-3.988,-1.606 -7.643,-2.686 -10.967,-3.24c-5.982,-0.775 -11.631,-0.111 -16.948,1.994c-6.979,2.991 -14.456,8.502 -22.432,16.533c-7.976,8.031 -14.511,16.644 -19.607,25.838c-3.766,6.979 -6.591,14.207 -8.474,21.684c-1.883,7.477 -2.548,14.096 -1.994,19.856c1.108,8.086 5.04,14.899 11.797,20.438c3.102,2.437 7.283,4.625 12.545,6.563c5.262,1.939 10.773,3.351 16.533,4.237Zm5.483,-56.827c-1.772,1.883 -3.323,3.489 -4.652,4.819c-1.329,1.329 -2.16,2.049 -2.492,2.16c-0.775,0.332 -0.637,-0.914 0.415,-3.739c1.052,-2.825 2.575,-6.259 4.569,-10.302c1.994,-4.043 4.099,-7.782 6.314,-11.216c2.548,-3.988 5.926,-8.474 10.136,-13.459c4.209,-4.985 7.477,-8.474 9.803,-10.468l2.659,-1.994l-0.332,1.994c-2.769,12.407 -11.576,26.475 -26.419,42.205Z" style="fill:#6b7867;"/><path d="M504.864,553.003c0.997,0.332 2.022,0.665 3.074,0.997c1.052,0.332 1.855,0.498 2.409,0.498c3.102,0 6.536,-2.935 10.302,-8.806c0.886,-1.551 2.049,-3.517 3.489,-5.899c1.44,-2.382 2.825,-4.569 4.154,-6.563c6.979,-11.742 17.834,-24.979 32.567,-39.712c8.751,-8.862 12.794,-12.573 12.13,-11.133c-0.554,1.551 -1.274,4.763 -2.16,9.637c-0.886,4.874 -1.717,9.886 -2.492,15.037c-0.775,5.151 -1.219,8.89 -1.329,11.216c-0.111,6.979 1.246,13.431 4.071,19.358c2.825,5.926 8.031,10.247 15.619,12.96c7.588,2.714 14.511,0.914 20.77,-5.4c6.259,-6.314 13.071,-15.702 20.438,-28.164c7.366,-12.462 12.296,-21.878 14.788,-28.247c2.492,-6.369 4.043,-10.108 4.652,-11.216c0.609,-1.108 0.914,-1.939 0.914,-2.492c-0.111,-0.665 -0.582,-1.412 -1.412,-2.243c-0.831,-0.831 -1.745,-1.551 -2.742,-2.16c-0.997,-0.609 -1.828,-0.858 -2.492,-0.748c-0.222,0 -0.498,0.249 -0.831,0.748c-0.332,0.498 -0.665,1.08 -0.997,1.745c-0.554,1.329 -1.745,3.711 -3.572,7.145c-1.828,3.434 -3.351,6.314 -4.569,8.64c-1.219,2.326 -5.151,8.253 -11.797,17.779c-6.646,9.526 -12.407,17.447 -17.281,23.761c-4.32,2.88 -6.923,2.769 -7.81,-0.332c-0.886,-3.102 -0.831,-6.757 0.166,-10.967c0.997,-4.209 2.326,-9.028 3.988,-14.456c1.662,-5.428 2.825,-9.139 3.489,-11.133c0.111,-0.222 0.166,-0.388 0.166,-0.498c3.323,-9.859 5.179,-16.893 5.566,-21.102c0.388,-4.209 -0.582,-7.588 -2.908,-10.136c-1.44,-1.883 -3.545,-3.766 -6.314,-5.649c-2.769,-1.883 -5.511,-3.406 -8.225,-4.569c-2.714,-1.163 -4.791,-1.634 -6.231,-1.412c-2.326,0.332 -5.372,2.437 -9.139,6.314c-2.215,2.215 -5.982,6.342 -11.299,12.379c-5.317,6.037 -10.856,12.379 -16.616,19.025c-5.76,6.646 -10.247,11.963 -13.459,15.951c-2.326,2.769 -4.237,5.04 -5.733,6.813c-1.495,1.772 -2.188,2.548 -2.077,2.326c0.222,-0.443 0.997,-2.132 2.326,-5.068c1.329,-2.935 2.935,-6.508 4.819,-10.717c1.883,-4.209 4.016,-8.945 6.397,-14.207c2.382,-5.262 4.459,-9.776 6.231,-13.542c3.545,-7.643 5.982,-13.099 7.311,-16.367c1.329,-3.268 1.994,-5.345 1.994,-6.231c-0.332,-1.883 -2.243,-4.182 -5.733,-6.896c-3.489,-2.714 -7.228,-4.846 -11.216,-6.397c-1.108,-0.332 -1.966,-0.526 -2.575,-0.582c-0.609,-0.055 -1.302,0.083 -2.077,0.415c-1.329,0.332 -2.492,1.135 -3.489,2.409c-0.997,1.274 -2.326,3.517 -3.988,6.729c-7.533,14.733 -14.428,30.38 -20.687,46.94c-6.259,16.561 -10.44,30.269 -12.545,41.125c-1.219,6.314 -0.942,11.16 0.831,14.539c1.772,3.379 5.483,6.231 11.133,8.557Z" style="fill:#6b7867;"/><path d="M725.524,560.148c2.437,0.554 4.32,0.831 5.649,0.831c1.329,0 2.603,-0.277 3.822,-0.831c3.102,-1.219 2.659,-2.271 -1.329,-3.157c-1.219,-0.222 -2.188,-0.609 -2.908,-1.163c-0.72,-0.554 -1.385,-1.495 -1.994,-2.825c-0.609,-1.329 -1.357,-3.434 -2.243,-6.314c-0.443,-1.329 -0.748,-2.603 -0.914,-3.822c-0.166,-1.219 -0.194,-2.825 -0.083,-4.819c0.111,-1.994 0.332,-4.929 0.665,-8.806c0.554,-6.979 1.468,-13.348 2.742,-19.108c1.274,-5.76 3.462,-12.96 6.563,-21.601c8.197,-22.708 18.776,-45.832 31.736,-69.372c12.96,-23.539 24.924,-41.457 35.89,-53.753c1.219,-1.219 2.382,-2.382 3.489,-3.489c1.108,-1.108 1.883,-1.828 2.326,-2.16c2.437,-1.662 2.105,-3.6 -0.997,-5.816c-1.44,-1.219 -3.572,-2.465 -6.397,-3.739c-2.825,-1.274 -5.622,-2.382 -8.391,-3.323c-2.769,-0.942 -4.929,-1.468 -6.48,-1.579c-0.997,0.111 -2.354,0.665 -4.071,1.662c-1.717,0.997 -3.462,2.215 -5.234,3.656c-4.985,4.763 -11.659,14.262 -20.022,28.496c-8.363,14.234 -16.699,30.269 -25.007,48.103c-1.44,3.102 -3.019,5.982 -4.736,8.64c-1.717,2.659 -4.625,6.536 -8.723,11.631l-4.486,5.816l-5.317,-2.825c-13.736,-7.976 -27.139,-8.973 -40.211,-2.991c-17.391,7.2 -31.515,23.207 -42.371,48.02c-2.326,5.428 -3.988,10.053 -4.985,13.874c-0.997,3.822 -1.606,7.893 -1.828,12.213c-0.443,8.086 0.665,13.57 3.323,16.45c1.662,1.772 4.763,3.462 9.305,5.068c4.542,1.606 8.806,2.631 12.794,3.074l2.991,0c0.665,0 1.302,-0.138 1.911,-0.415c0.609,-0.277 1.468,-0.748 2.575,-1.412c1.108,-0.554 2.382,-1.44 3.822,-2.659c1.44,-1.219 2.825,-2.492 4.154,-3.822c1.883,-2.105 5.705,-6.314 11.465,-12.628c5.76,-6.314 11.714,-12.877 17.862,-19.69c6.148,-6.813 10.828,-11.991 14.04,-15.536c1.772,-1.994 3.268,-3.656 4.486,-4.985c1.219,-1.329 1.883,-1.994 1.994,-1.994c0,0 -0.055,0.222 -0.166,0.665c-0.111,0.443 -0.277,0.997 -0.498,1.662c-1.994,6.425 -3.462,14.234 -4.403,23.429c-0.942,9.194 -0.914,16.284 0.083,21.268c0.665,2.769 2.105,6.563 4.32,11.382c2.215,4.819 4.265,8.779 6.148,11.88c1.44,2.215 2.825,3.794 4.154,4.736c1.329,0.942 3.157,1.634 5.483,2.077Zm-60.316,-51.343c-2.105,1.994 -4.237,4.043 -6.397,6.148c-2.16,2.105 -3.849,3.766 -5.068,4.985c-1.329,1.219 -2.299,2.077 -2.908,2.575c-0.609,0.498 -0.969,0.72 -1.08,0.665c-0.111,-0.055 -0.055,-0.36 0.166,-0.914c2.88,-8.308 7.117,-16.865 12.711,-25.672c5.594,-8.806 11.382,-16.09 17.364,-21.85c3.545,-3.212 7.228,-6.065 11.05,-8.557c3.822,-2.492 6.563,-3.794 8.225,-3.905c0.222,0 0.665,0.111 1.329,0.332c0.665,0.222 1.385,0.554 2.16,0.997l2.492,1.329l-6.148,6.979c-3.988,4.763 -9.36,10.8 -16.117,18.111c-6.757,7.311 -12.684,13.57 -17.779,18.776Z" style="fill:#6b7867;"/><path d="M774.707,570.117c4.542,0.554 9.028,0.388 13.459,-0.498c8.419,-1.772 17.668,-5.428 27.749,-10.967c10.08,-5.539 18.444,-11.576 25.09,-18.111c5.317,-5.428 8.197,-10.69 8.64,-15.785c0.443,-3.323 0.083,-6.148 -1.08,-8.474c-1.163,-2.326 -2.963,-4.708 -5.4,-7.145l-3.323,-2.659l2.492,-1.662c2.326,-1.551 6.342,-4.071 12.047,-7.56c5.705,-3.489 11.603,-7.062 17.696,-10.717c6.093,-3.656 10.8,-6.425 14.124,-8.308c2.88,-1.662 5.317,-3.129 7.311,-4.403c1.994,-1.274 2.991,-2.022 2.991,-2.243c0,-0.332 -0.388,-0.775 -1.163,-1.329c-0.775,-0.554 -1.883,-1.052 -3.323,-1.495c-1.44,-0.443 -2.437,-0.665 -2.991,-0.665c-1.772,0 -12.905,5.926 -33.398,17.779c-5.539,3.102 -10.523,5.926 -14.954,8.474c-4.431,2.548 -7.311,4.209 -8.64,4.985l-3.822,2.16l-3.822,-1.329c-1.108,-0.332 -3.046,-0.831 -5.816,-1.495c-2.769,-0.665 -5.705,-1.329 -8.806,-1.994c-2.659,-0.554 -4.736,-0.997 -6.231,-1.329c-1.495,-0.332 -2.603,-0.637 -3.323,-0.914c-0.72,-0.277 -1.219,-0.526 -1.495,-0.748c-0.277,-0.222 -0.471,-0.554 -0.582,-0.997c-0.332,-1.329 0.138,-3.656 1.412,-6.979c1.274,-3.323 2.908,-6.48 4.902,-9.471c2.215,-3.212 4.099,-5.843 5.649,-7.893c1.551,-2.049 4.043,-4.348 7.477,-6.896c8.419,-5.982 18.167,-11.133 29.244,-15.453c2.437,-0.886 2.825,-2.382 1.163,-4.486c-1.108,-1.219 -3.074,-2.659 -5.899,-4.32c-2.825,-1.662 -5.622,-3.046 -8.391,-4.154c-1.772,-0.775 -3.268,-1.274 -4.486,-1.495c-1.219,-0.222 -2.714,-0.277 -4.486,-0.166c-6.868,-0.111 -14.954,2.326 -24.259,7.311c-9.97,3.988 -18.554,12.296 -25.755,24.924c-1.108,1.994 -1.939,3.794 -2.492,5.4c-0.554,1.606 -1.052,3.628 -1.495,6.065c-0.886,4.874 -0.748,8.668 0.415,11.382c1.163,2.714 3.628,5.234 7.394,7.56c6.979,4.652 17.89,8.308 32.733,10.967c2.215,0.332 4.099,0.665 5.649,0.997c1.551,0.332 2.382,0.498 2.492,0.498c0,0.111 -6.951,3.766 -20.853,10.967c-13.902,7.2 -25.312,14.677 -34.229,22.432c-8.917,7.754 -12.573,13.93 -10.967,18.527c1.606,4.597 4.985,7.588 10.136,8.973c5.151,1.385 8.89,2.299 11.216,2.742Zm12.96,-15.287c-2.105,1.108 -4.126,2.077 -6.065,2.908c-1.939,0.831 -3.295,1.412 -4.071,1.745l-2.659,0.831l0.831,-1.495c3.988,-7.976 14.234,-18.167 30.74,-30.573c4.874,-2.991 8.585,-5.372 11.133,-7.145c2.548,-1.772 5.096,-3.489 7.643,-5.151c2.548,-1.662 3.988,-2.492 4.32,-2.492c0.222,0 0.36,0.249 0.415,0.748c0.055,0.498 0.028,1.135 -0.083,1.911c-1.44,5.317 -6.148,11.714 -14.124,19.191c-7.976,7.477 -17.336,13.985 -28.081,19.524Z" style="fill:#6b7867;"/></g></g><g><g><g><path d="M335.658,652.323l0,-36.716l6.819,0l0,30.946l19.197,0l0,5.77l-26.016,0Z" style="fill:#a3b29a;fill-rule:nonzero;"/><rect x="367.076" y="615.607" width="6.819" height="36.716" style="fill:#a3b29a;fill-rule:nonzero;"/></g><g><path d="M394.403,652.323l-16.05,-36.716l7.396,0l14.319,33.202l-4.249,0l14.477,-33.202l6.819,0l-15.998,36.716l-6.714,0Z" style="fill:#a3b29a;fill-rule:nonzero;"/><path d="M427.29,630.87l18.253,0l0,5.612l-18.253,0l0,-5.612Zm0.525,15.735l20.718,0l0,5.717l-27.537,0l0,-36.716l26.803,0l0,5.717l-19.984,0l0,25.281Z" style="fill:#a3b29a;fill-rule:nonzero;"/><path d="M470.615,652.323l0,-36.716l5.612,0l16.05,26.803l-2.937,0l15.788,-26.803l5.612,0l0.052,36.716l-6.451,0l-0.052,-26.593l1.364,0l-13.427,22.397l-3.042,0l-13.637,-22.397l1.574,0l0,26.593l-6.504,0Z" style="fill:#a3b29a;fill-rule:nonzero;"/><path d="M536.493,652.847c-5.035,0 -8.978,-1.416 -11.828,-4.249c-2.85,-2.832 -4.275,-6.924 -4.275,-12.274l0,-20.718l6.819,0l0,20.456c0,3.776 0.813,6.521 2.439,8.235c1.626,1.713 3.925,2.57 6.897,2.57c2.972,0 5.263,-0.857 6.871,-2.57c1.609,-1.713 2.413,-4.458 2.413,-8.235l0,-20.456l6.714,0l0,20.718c0,5.35 -1.425,9.441 -4.275,12.274c-2.85,2.832 -6.775,4.249 -11.775,4.249Z" style="fill:#a3b29a;fill-rule:nonzero;"/><path d="M573.471,652.847c-2.867,0 -5.612,-0.411 -8.235,-1.233c-2.623,-0.822 -4.703,-1.879 -6.242,-3.173l2.36,-5.298c1.469,1.154 3.287,2.116 5.455,2.885c2.168,0.769 4.388,1.154 6.661,1.154c1.923,0 3.479,-0.21 4.668,-0.629c1.189,-0.42 2.063,-0.988 2.623,-1.705c0.559,-0.717 0.839,-1.53 0.839,-2.439c0,-1.119 -0.402,-2.019 -1.206,-2.701c-0.804,-0.682 -1.845,-1.224 -3.121,-1.626c-1.276,-0.402 -2.692,-0.778 -4.249,-1.128c-1.556,-0.35 -3.112,-0.761 -4.668,-1.233c-1.556,-0.472 -2.972,-1.084 -4.249,-1.836c-1.276,-0.752 -2.317,-1.757 -3.121,-3.016c-0.804,-1.259 -1.206,-2.867 -1.206,-4.826c0,-1.993 0.533,-3.82 1.6,-5.481c1.067,-1.661 2.692,-2.99 4.878,-3.986c2.185,-0.997 4.957,-1.495 8.313,-1.495c2.203,0 4.388,0.28 6.556,0.839c2.168,0.559 4.056,1.364 5.665,2.413l-2.15,5.298c-1.643,-0.979 -3.339,-1.705 -5.088,-2.177c-1.748,-0.472 -3.427,-0.708 -5.035,-0.708c-1.888,0 -3.418,0.227 -4.589,0.682c-1.171,0.455 -2.028,1.049 -2.57,1.783c-0.542,0.734 -0.813,1.574 -0.813,2.518c0,1.119 0.393,2.019 1.18,2.701c0.787,0.682 1.818,1.215 3.095,1.6c1.276,0.385 2.701,0.761 4.275,1.128c1.574,0.367 3.138,0.778 4.694,1.233c1.556,0.455 2.972,1.049 4.249,1.783c1.276,0.734 2.308,1.731 3.095,2.99c0.787,1.259 1.18,2.85 1.18,4.773c0,1.958 -0.533,3.768 -1.6,5.429c-1.067,1.661 -2.701,2.99 -4.904,3.986c-2.203,0.997 -4.983,1.495 -8.34,1.495Z" style="fill:#a3b29a;fill-rule:nonzero;"/><rect x="595.081" y="615.607" width="6.819" height="36.716" style="fill:#a3b29a;fill-rule:nonzero;"/><path d="M628.807,652.847c-2.797,0 -5.394,-0.463 -7.789,-1.39c-2.395,-0.927 -4.476,-2.238 -6.242,-3.934c-1.766,-1.696 -3.138,-3.698 -4.117,-6.006c-0.979,-2.308 -1.469,-4.826 -1.469,-7.553c0,-2.727 0.49,-5.245 1.469,-7.553c0.979,-2.308 2.36,-4.31 4.144,-6.006c1.783,-1.696 3.864,-3.007 6.242,-3.934c2.378,-0.927 4.983,-1.39 7.815,-1.39c3.007,0 5.752,0.516 8.235,1.547c2.483,1.032 4.581,2.561 6.294,4.589l-4.406,4.144c-1.329,-1.434 -2.815,-2.509 -4.458,-3.226c-1.643,-0.717 -3.427,-1.075 -5.35,-1.075c-1.923,0 -3.68,0.315 -5.271,0.944c-1.591,0.629 -2.972,1.521 -4.144,2.675c-1.171,1.154 -2.081,2.518 -2.727,4.091c-0.647,1.574 -0.97,3.304 -0.97,5.193c0,1.888 0.323,3.619 0.97,5.193c0.647,1.574 1.556,2.937 2.727,4.091c1.171,1.154 2.553,2.046 4.144,2.675c1.591,0.629 3.348,0.944 5.271,0.944c1.923,0 3.707,-0.358 5.35,-1.075c1.643,-0.717 3.13,-1.81 4.458,-3.278l4.406,4.196c-1.713,1.993 -3.811,3.514 -6.294,4.563c-2.483,1.049 -5.245,1.574 -8.287,1.574Z" style="fill:#a3b29a;fill-rule:nonzero;"/></g></g></g></g></g></svg>