<?xml version="1.0" encoding="UTF-8" standalone="no"?>
<!DOCTYPE svg PUBLIC "-//W3C//DTD SVG 1.1//EN" "http://www.w3.org/Graphics/SVG/1.1/DTD/svg11.dtd">
<svg width="100%" height="100%" viewBox="0 0 954 954" version="1.1" xmlns="http://www.w3.org/2000/svg" xmlns:xlink="http://www.w3.org/1999/xlink" xml:space="preserve" xmlns:serif="http://www.serif.com/" style="fill-rule:evenodd;clip-rule:evenodd;stroke-linejoin:round;stroke-miterlimit:2;">
    <g transform="matrix(1,0,0,1,-99.818587,-87.288018)">
        <g transform="matrix(0.657215,0,0,0.657215,34.216312,29.921021)">
            <g transform="matrix(1,0,0,1,67.815811,-53.905168)">
                <circle cx="757.438" cy="866.628" r="725.435" style="fill:rgb(242,238,230);"/>
            </g>
            <g transform="matrix(0.477884,0,0,0.477884,-5468.193978,-12965.61035)">
                <path d="M12855.534,29949.129C12797.915,29957.176 12720.58,29963.333 12618.903,29966.189C12671.549,29987.284 12714.204,30000.321 12739.279,30005.836C12764.175,30011.312 12917.327,30040.356 12947.6,30043.629C12974.387,30046.525 12998.099,30048.704 13019.036,30050.321C13143.707,30046.493 13303.059,30039.4 13354.447,30024.33C13469.991,29990.445 13564.876,29920.343 13622.334,29867.988C13613.462,29849.224 13601.081,29824.78 13584.369,29792.763C13527.234,29683.305 13535.847,29677.972 13518.206,29647.234C13508.871,29630.969 13503.091,29631.4 13508.064,29621.096C13514.827,29607.085 13533.094,29652.645 13572.556,29667.449C13609.915,29681.463 13695.1,29711.114 13697.493,29767.646L13697.51,29767.701C13700.134,29776.024 13697.185,29810.022 13693.128,29813.529C13692.479,29814.09 13692.41,29815.184 13691.978,29816.061C13685.683,29828.86 13669.222,29848.632 13646.242,29871.291C13668.121,29910.35 13679.818,29924.431 13691.227,29993.811C13693.352,30046.376 13635.596,30123.094 13580.889,30100.853C13534.001,30054.839 13572.31,29966.155 13621.897,29937.341C13639.457,29930.545 13650.813,29932.919 13630.62,29886.204C13564.588,29947.343 13460.394,30021.861 13380.585,30039.649C13259.634,30066.607 13113.418,30083.278 12981.212,30073.752C12973.436,30074.115 12968.2,30074.224 12966.586,30074.037C12847.366,30060.237 12739.3,30036.337 12641.633,30004.067C12669.467,30033.044 12694.196,30063.169 12695.455,30066.013C12696.745,30068.928 12700.964,30092.136 12696.916,30086.086C12685.583,30069.15 12617.76,29999.752 12587.073,29986.836C12583.478,29985.322 12579.814,29983.201 12576.423,29980.701C12325.777,29883.64 12149.486,29728.594 12032.771,29549.456C11826.197,29232.4 11796.313,28839.26 11868.401,28576.722C12131.65,27618 13042.507,27507.436 13042.014,27575.327C13041.804,27604.347 13028.645,27590.219 12977.919,27597.688C12695.484,27639.274 12442.684,27765.917 12261.026,27959.016C11937.445,28302.976 11776.174,28765.506 11932.569,29263.509C11962.885,29360.045 12009.384,29446.355 12065.031,29533.37C12086.618,29567.125 12107.322,29588.263 12132.855,29621.002C12256.235,29779.2 12434.968,29885.142 12570.734,29945.777C12596.579,29950.055 12633.062,29950.263 12656.288,29948.356C12710.758,29943.884 12766.851,29939.261 12816.027,29933.676C12838.92,29917.19 12866.184,29888.346 12866.114,29863.191C12866.07,29847.322 12897.39,29839.739 12906.622,29852.593C12916.929,29866.946 12868.635,29907.111 12832.498,29931.736C12880.931,29925.808 12921.163,29918.786 12944.136,29909.814C12948.107,29908.263 12956.563,29905.785 12955.263,29902.737C12951.061,29892.878 12969.44,29865.535 12985.494,29867.989C13024.083,29873.886 13005.576,29893.087 12999.014,29902.737C12990.051,29915.919 12961.491,29929.606 12904.205,29941.016C12922.801,29946.657 12936.863,29956.488 12935.756,29972.119C12933.944,29997.695 12909.148,30016.312 12903.398,29995.146C12895.993,29967.882 12875.004,29953.92 12855.534,29949.129ZM13678.048,29771.09C13663.839,29734.703 13623.53,29696.159 13561.089,29702.687C13558.387,29702.969 13602.921,29782.714 13621.168,29822.158C13626.924,29834.601 13632.173,29845.106 13636.987,29854.265C13651.856,29839.939 13663.357,29827.57 13671.061,29818.533C13672.382,29816.984 13673.544,29814.774 13674.556,29812.226C13678.38,29802.592 13680.085,29790.117 13680.009,29786.237C13679.906,29780.928 13679.05,29775.799 13678.048,29771.09Z" style="fill:rgb(214,184,138);"/>
            </g>
            <g transform="matrix(0.681163,0,0,0.681163,-251.853207,-613.783693)">
                <g transform="matrix(760.145697,0,0,760.145697,2488.438993,2317.965119)">
                </g>
                <text x="701.28px" y="2317.965px" style="font-family:'BallerickScript', 'Ballerick Script';font-size:760.146px;fill:rgb(107,120,103);">Friends</text>
            </g>
            <g transform="matrix(0.280114,0,0,0.280114,296.98975,-1147.970544)">
                <g transform="matrix(284.913311,0,0,284.913311,2799.807938,7953.242815)">
                </g>
                <text x="1092.607px" y="7953.243px" style="font-family:'Montserrat-SemiBold', 'Montserrat';font-weight:600;font-size:284.913px;fill:rgb(163,178,154);">LI<tspan x="1352.733px 1556.161px " y="7953.243px 7953.243px ">VE</tspan> MUSIC</text>
            </g>
        </g>
    </g>
</svg>
